<?xml version="1.0" encoding="utf-8"?>
<!-- Generator: Adobe Illustrator 24.0.0, SVG Export Plug-In . SVG Version: 6.00 Build 0)  -->
<svg version="1.1"
	 id="Layer_1" xmlns:cc="http://creativecommons.org/ns#" xmlns:dc="http://purl.org/dc/elements/1.1/" xmlns:inkscape="http://www.inkscape.org/namespaces/inkscape" xmlns:rdf="http://www.w3.org/1999/02/22-rdf-syntax-ns#" xmlns:sodipodi="http://sodipodi.sourceforge.net/DTD/sodipodi-0.dtd" xmlns:svg="http://www.w3.org/2000/svg"
	 xmlns="http://www.w3.org/2000/svg" xmlns:xlink="http://www.w3.org/1999/xlink" x="0px" y="0px" viewBox="0 0 100 125"
	 style="enable-background:new 0 0 100 125;" xml:space="preserve">
<style type="text/css">
	.st0{fill-rule:evenodd;clip-rule:evenodd;}
</style>
<g transform="translate(0,-952.36218)">
	<path class="st0" d="M50,958.3c-13.8,0-25,11.2-25,25c0,9.8,5.7,18.4,14,22.4c-16.8,4.8-29.1,20.3-29.1,38.6c0,1.1,0.9,2,2,2
		s2-0.9,2-2c0,0,0,0,0-0.1c0-19.5,15.3-35.3,34.6-36.1c0.5,0,1,0,1.5,0c0.5,0,1,0,1.5,0c19.3,0.8,34.6,16.6,34.6,36.1
		c0,1.1,0.9,2,2,2c1.1,0,2-0.9,2-2c0,0,0,0,0-0.1c0-18.3-12.3-33.8-29.1-38.6c8.3-4.1,14-12.6,14-22.4C75,969.6,63.8,958.3,50,958.3
		z M50,962.3c11.6,0,21,9.4,21,21c0,11.1-8.6,20.2-19.5,20.9c-0.5,0-1,0-1.5,0c-0.5,0-1,0-1.5,0c-10.9-0.8-19.5-9.8-19.5-20.9
		C29,971.7,38.4,962.3,50,962.3z"/>
</g>
</svg>
